{
	"asset":{
		"generator":"Khronos glTF Blender I/O v4.5.48",
		"version":"2.0"
	},
	"scene":0,
	"scenes":[
		{
			"name":"Scene",
			"nodes":[
				31
			]
		}
	],
	"nodes":[
		{
			"mesh":0,
			"name":"Cube_0",
			"translation":[
				0,
				-6.243586540222168e-06,
				0
			]
		},
		{
			"children":[
				0
			],
			"name":"Cube",
			"rotation":[
				-0.00041444023372605443,
				0,
				0,
				1
			],
			"scale":[
				0.009859999641776085,
				0.009860005229711533,
				0.41954007744789124
			],
			"translation":[
				-1.344980001449585,
				1.0016200542449951,
				2.3791298866271973
			]
		},
		{
			"mesh":1,
			"name":"Cube.005_0",
			"translation":[
				0,
				-6.604370719287544e-05,
				0
			]
		},
		{
			"children":[
				2
			],
			"name":"Cube.005",
			"scale":[
				0.8934500217437744,
				0.01355000026524067,
				0.0735199972987175
			],
			"translation":[
				4.960279941558838,
				8.099390029907227,
				0.5051100254058838
			]
		},
		{
			"mesh":2,
			"name":"Cube.035_0",
			"translation":[
				0,
				2.423830665065907e-06,
				0
			]
		},
		{
			"children":[
				4
			],
			"name":"Cube.035",
			"rotation":[
				-0.70710688829422,
				0,
				0,
				0.7071066498756409
			],
			"scale":[
				0.003539999946951866,
				0.013960001990199089,
				0.014160001650452614
			],
			"translation":[
				-0.07483000308275223,
				-0.9186199903488159,
				0.8646699786186218
			]
		},
		{
			"mesh":3,
			"name":"Cylinder_0"
		},
		{
			"children":[
				6
			],
			"name":"Cylinder",
			"scale":[
				0.2160000056028366,
				0.2160000056028366,
				0.2160000056028366
			],
			"translation":[
				-7.582300186157227,
				-0.4020000100135803,
				0.8753899931907654
			]
		},
		{
			"mesh":4,
			"name":"Cylinder.000_0",
			"translation":[
				-1.1291996088402811e-05,
				0,
				0
			]
		},
		{
			"children":[
				8
			],
			"name":"Cylinder.000",
			"rotation":[
				0,
				0,
				-0.7071068286895752,
				0.7071067094802856
			],
			"scale":[
				0.03659000247716904,
				0.03659000247716904,
				0.03658999875187874
			],
			"translation":[
				-1.012179970741272,
				-8.7012300491333,
				4.223529815673828
			]
		},
		{
			"mesh":5,
			"name":"Cylinder.001_0",
			"translation":[
				2.3469106963602826e-05,
				2.3024180336506106e-05,
				-2.9414160962915048e-05
			]
		},
		{
			"children":[
				10
			],
			"name":"Cylinder.001",
			"rotation":[
				0,
				0,
				-0.7071067690849304,
				0.7071068286895752
			],
			"scale":[
				0.01522000040858984,
				0.01522000040858984,
				0.01522000040858984
			],
			"translation":[
				6.7016401290893555,
				-3.3320000171661377,
				4.408269882202148
			]
		},
		{
			"mesh":6,
			"name":"Cylinder.002_0",
			"translation":[
				2.3062500986270607e-05,
				-7.493397788493894e-06,
				-2.9414160962915048e-05
			]
		},
		{
			"children":[
				12
			],
			"name":"Cylinder.002",
			"rotation":[
				0,
				0,
				-0.7071067690849304,
				0.7071068286895752
			],
			"scale":[
				0.01522000040858984,
				0.01522000040858984,
				0.01522000040858984
			],
			"translation":[
				-7.0490498542785645,
				-3.3320000171661377,
				4.408269882202148
			]
		},
		{
			"mesh":7,
			"name":"Cylinder.003_0",
			"translation":[
				0,
				0,
				3.861609002342448e-06
			]
		},
		{
			"children":[
				14
			],
			"name":"Cylinder.003",
			"rotation":[
				0.5,
				-0.5000000596046448,
				-0.5000000596046448,
				0.5000000596046448
			],
			"scale":[
				0.11439001560211182,
				0.11439001560211182,
				0.0305200032889843
			],
			"translation":[
				-5.240650177001953,
				-2.917910099029541,
				-0.029100000858306885
			]
		},
		{
			"mesh":8,
			"name":"Cylinder.008_0",
			"translation":[
				0,
				-7.1680638029647525e-06,
				-2.778949237836059e-06
			]
		},
		{
			"children":[
				16
			],
			"name":"Cylinder.008",
			"rotation":[
				0,
				0,
				-0.9976356029510498,
				0.06872574239969254
			],
			"scale":[
				0.18749119341373444,
				0.18749119341373444,
				0.11421000212430954
			],
			"translation":[
				-1.0091899633407593,
				-8.847479820251465,
				4.344520092010498
			]
		},
		{
			"mesh":9,
			"name":"Cylinder_Cylinder.009_0"
		},
		{
			"children":[
				18
			],
			"name":"Cylinder_Cylinder.009",
			"rotation":[
				0.70710688829422,
				0,
				0,
				0.7071066498756409
			],
			"scale":[
				0.7096099853515625,
				0.7096100449562073,
				0.7096100449562073
			],
			"translation":[
				4.23799991607666,
				2.8929100036621094,
				-0.029610000550746918
			]
		},
		{
			"mesh":10,
			"name":"Plane_0",
			"translation":[
				0,
				0,
				2.768765170912957e-06
			]
		},
		{
			"children":[
				20
			],
			"name":"Plane",
			"rotation":[
				0.5,
				0.5,
				0.5,
				0.5
			],
			"scale":[
				0.3329799771308899,
				0.11497998982667923,
				0.11497998982667923
			],
			"translation":[
				7.50738000869751,
				-3.0591700077056885,
				2.281899929046631
			]
		},
		{
			"mesh":11,
			"name":"Plane.001_0"
		},
		{
			"children":[
				22
			],
			"name":"Plane.001",
			"scale":[
				8.884730339050293,
				8.884730339050293,
				8.884730339050293
			]
		},
		{
			"mesh":12,
			"name":"Plane.002_0"
		},
		{
			"children":[
				24
			],
			"name":"Plane.002",
			"rotation":[
				0,
				0,
				-0.7071068286895752,
				0.7071067094802856
			],
			"scale":[
				0.3088000416755676,
				0.3088000416755676,
				0.30880001187324524
			],
			"translation":[
				6.626229763031006,
				1.3265000581741333,
				0.15373000502586365
			]
		},
		{
			"mesh":13,
			"name":"Plane.009_0",
			"translation":[
				7.927828846732154e-06,
				3.6616879697248805e-06,
				0
			]
		},
		{
			"children":[
				26
			],
			"name":"Plane.009",
			"rotation":[
				0,
				0,
				-0.8189023733139038,
				0.5739330053329468
			],
			"scale":[
				0.11720337718725204,
				0.11720337718725204,
				0.41538000106811523
			],
			"translation":[
				3.2196500301361084,
				5.422359943389893,
				2.0469799041748047
			]
		},
		{
			"mesh":14,
			"name":"Plane.012_0"
		},
		{
			"children":[
				28
			],
			"name":"Plane.012",
			"rotation":[
				0.5000000596046448,
				0.5000000596046448,
				0.5,
				0.5000000596046448
			],
			"scale":[
				0.24594999849796295,
				0.3063200116157532,
				0.3063200116157532
			],
			"translation":[
				-6.457300186157227,
				-3.330899953842163,
				2.1377100944519043
			]
		},
		{
			"children":[
				1,
				3,
				5,
				7,
				9,
				11,
				13,
				15,
				17,
				19,
				21,
				23,
				25,
				27,
				29
			],
			"name":"Root"
		},
		{
			"children":[
				30
			],
			"name":"Sketchfab_model",
			"rotation":[
				-0.70710688829422,
				0,
				0,
				0.7071066498756409
			]
		}
	],
	"materials":[
		{
			"doubleSided":true,
			"name":"Main.001",
			"pbrMetallicRoughness":{
				"baseColorTexture":{
					"index":0
				},
				"metallicFactor":0,
				"roughnessFactor":0.6000000238418579
			}
		},
		{
			"doubleSided":true,
			"name":"Main",
			"pbrMetallicRoughness":{
				"baseColorTexture":{
					"index":1
				},
				"metallicFactor":0,
				"roughnessFactor":0.6000000238418579
			}
		}
	],
	"meshes":[
		{
			"name":"Cube_0",
			"primitives":[
				{
					"attributes":{
						"POSITION":0,
						"NORMAL":1,
						"TEXCOORD_0":2
					},
					"indices":3,
					"material":0
				}
			]
		},
		{
			"name":"Cube.005_0",
			"primitives":[
				{
					"attributes":{
						"POSITION":4,
						"NORMAL":5,
						"TEXCOORD_0":6
					},
					"indices":7,
					"material":0
				}
			]
		},
		{
			"name":"Cube.035_0",
			"primitives":[
				{
					"attributes":{
						"POSITION":8,
						"NORMAL":9,
						"TEXCOORD_0":10,
						"COLOR_0":11
					},
					"indices":12,
					"material":1
				}
			]
		},
		{
			"name":"Cylinder_0",
			"primitives":[
				{
					"attributes":{
						"POSITION":13,
						"NORMAL":14,
						"TEXCOORD_0":15
					},
					"indices":16,
					"material":0
				}
			]
		},
		{
			"name":"Cylinder.000_0",
			"primitives":[
				{
					"attributes":{
						"POSITION":17,
						"NORMAL":18,
						"TEXCOORD_0":19,
						"COLOR_0":20
					},
					"indices":21,
					"material":1
				}
			]
		},
		{
			"name":"Cylinder.001_0",
			"primitives":[
				{
					"attributes":{
						"POSITION":22,
						"NORMAL":23,
						"TEXCOORD_0":24,
						"COLOR_0":25
					},
					"indices":26,
					"material":1
				}
			]
		},
		{
			"name":"Cylinder.002_0",
			"primitives":[
				{
					"attributes":{
						"POSITION":27,
						"NORMAL":28,
						"TEXCOORD_0":29,
						"COLOR_0":30
					},
					"indices":26,
					"material":1
				}
			]
		},
		{
			"name":"Cylinder.003_0",
			"primitives":[
				{
					"attributes":{
						"POSITION":31,
						"NORMAL":32,
						"TEXCOORD_0":33
					},
					"indices":34,
					"material":0
				}
			]
		},
		{
			"name":"Cylinder.008_0",
			"primitives":[
				{
					"attributes":{
						"POSITION":35,
						"NORMAL":36,
						"TEXCOORD_0":37,
						"COLOR_0":38
					},
					"indices":39,
					"material":1
				}
			]
		},
		{
			"name":"Cylinder_Cylinder.009_0",
			"primitives":[
				{
					"attributes":{
						"POSITION":40,
						"NORMAL":41,
						"TEXCOORD_0":42,
						"COLOR_0":43
					},
					"indices":44,
					"material":1
				}
			]
		},
		{
			"name":"Plane_0",
			"primitives":[
				{
					"attributes":{
						"POSITION":45,
						"NORMAL":46,
						"TEXCOORD_0":47,
						"COLOR_0":48
					},
					"indices":49,
					"material":1
				}
			]
		},
		{
			"name":"Plane.001_0",
			"primitives":[
				{
					"attributes":{
						"POSITION":50,
						"NORMAL":51,
						"TEXCOORD_0":52,
						"COLOR_0":53
					},
					"indices":54,
					"material":1
				}
			]
		},
		{
			"name":"Plane.002_0",
			"primitives":[
				{
					"attributes":{
						"POSITION":55,
						"NORMAL":56,
						"TEXCOORD_0":57
					},
					"indices":58,
					"material":0
				}
			]
		},
		{
			"name":"Plane.009_0",
			"primitives":[
				{
					"attributes":{
						"POSITION":59,
						"NORMAL":60,
						"TEXCOORD_0":61,
						"COLOR_0":62
					},
					"indices":63,
					"material":1
				}
			]
		},
		{
			"name":"Plane.012_0",
			"primitives":[
				{
					"attributes":{
						"POSITION":64,
						"NORMAL":65,
						"TEXCOORD_0":66
					},
					"indices":67,
					"material":0
				}
			]
		}
	],
	"textures":[
		{
			"sampler":0,
			"source":0
		},
		{
			"sampler":0,
			"source":0
		}
	],
	"images":[
		{
			"mimeType":"image/png",
			"name":"Main_baseColor",
			"uri":"Main_baseColor.png"
		}
	],
	"accessors":[
		{
			"bufferView":0,
			"componentType":5126,
			"count":892,
			"max":[
				17.2891902923584,
				31.515090942382812,
				0.6767100095748901
			],
			"min":[
				-15.975720405578613,
				-20.640249252319336,
				-1.7945599555969238
			],
			"type":"VEC3"
		},
		{
			"bufferView":1,
			"componentType":5126,
			"count":892,
			"type":"VEC3"
		},
		{
			"bufferView":2,
			"componentType":5126,
			"count":892,
			"type":"VEC2"
		},
		{
			"bufferView":3,
			"componentType":5123,
			"count":1731,
			"type":"SCALAR"
		},
		{
			"bufferView":4,
			"componentType":5126,
			"count":7122,
			"max":[
				3.3109800815582275,
				6.581049919128418,
				7.432260036468506
			],
			"min":[
				-12.224809646606445,
				-645.8836059570312,
				-9.114399909973145
			],
			"type":"VEC3"
		},
		{
			"bufferView":5,
			"componentType":5126,
			"count":7122,
			"type":"VEC3"
		},
		{
			"bufferView":6,
			"componentType":5126,
			"count":7122,
			"type":"VEC2"
		},
		{
			"bufferView":7,
			"componentType":5123,
			"count":13788,
			"type":"SCALAR"
		},
		{
			"bufferView":8,
			"componentType":5126,
			"count":2036,
			"max":[
				-4.981820106506348,
				71.94999694824219,
				21.800220489501953
			],
			"min":[
				-68.61290740966797,
				-13.207619667053223,
				-20.168270111083984
			],
			"type":"VEC3"
		},
		{
			"bufferView":9,
			"componentType":5126,
			"count":2036,
			"type":"VEC3"
		},
		{
			"bufferView":10,
			"componentType":5126,
			"count":2036,
			"type":"VEC2"
		},
		{
			"bufferView":11,
			"componentType":5126,
			"count":2036,
			"type":"VEC3"
		},
		{
			"bufferView":12,
			"componentType":5123,
			"count":4371,
			"type":"SCALAR"
		},
		{
			"bufferView":13,
			"componentType":5126,
			"count":692,
			"max":[
				1.3618600368499756,
				0.8665800094604492,
				-0.17361000180244446
			],
			"min":[
				-1.4110499620437622,
				-1.595289945602417,
				-4.33188009262085
			],
			"type":"VEC3"
		},
		{
			"bufferView":14,
			"componentType":5126,
			"count":692,
			"type":"VEC3"
		},
		{
			"bufferView":15,
			"componentType":5126,
			"count":692,
			"type":"VEC2"
		},
		{
			"bufferView":16,
			"componentType":5123,
			"count":1092,
			"type":"SCALAR"
		},
		{
			"bufferView":17,
			"componentType":5126,
			"count":3976,
			"max":[
				9.102740287780762,
				269.75946044921875,
				59.939640045166016
			],
			"min":[
				-47.947959899902344,
				-254.92428588867188,
				-125.45284271240234
			],
			"type":"VEC3"
		},
		{
			"bufferView":18,
			"componentType":5126,
			"count":3976,
			"type":"VEC3"
		},
		{
			"bufferView":19,
			"componentType":5126,
			"count":3976,
			"type":"VEC2"
		},
		{
			"bufferView":20,
			"componentType":5126,
			"count":3976,
			"type":"VEC3"
		},
		{
			"bufferView":21,
			"componentType":5123,
			"count":5028,
			"type":"SCALAR"
		},
		{
			"bufferView":22,
			"componentType":5126,
			"count":1753,
			"max":[
				87.52699279785156,
				13.440349578857422,
				43.62211990356445
			],
			"min":[
				-124.49716186523438,
				-13.670269966125488,
				-296.4317626953125
			],
			"type":"VEC3"
		},
		{
			"bufferView":23,
			"componentType":5126,
			"count":1753,
			"type":"VEC3"
		},
		{
			"bufferView":24,
			"componentType":5126,
			"count":1753,
			"type":"VEC2"
		},
		{
			"bufferView":25,
			"componentType":5126,
			"count":1753,
			"type":"VEC3"
		},
		{
			"bufferView":26,
			"componentType":5123,
			"count":2577,
			"type":"SCALAR"
		},
		{
			"bufferView":27,
			"componentType":5126,
			"count":1753,
			"max":[
				87.52699279785156,
				13.440349578857422,
				43.62211990356445
			],
			"min":[
				-124.49716186523438,
				-13.670269966125488,
				-296.4317626953125
			],
			"type":"VEC3"
		},
		{
			"bufferView":28,
			"componentType":5126,
			"count":1753,
			"type":"VEC3"
		},
		{
			"bufferView":29,
			"componentType":5126,
			"count":1753,
			"type":"VEC2"
		},
		{
			"bufferView":30,
			"componentType":5126,
			"count":1753,
			"type":"VEC3"
		},
		{
			"bufferView":31,
			"componentType":5126,
			"count":2506,
			"max":[
				6.043789863586426,
				10.512129783630371,
				25.317489624023438
			],
			"min":[
				-3.171989917755127,
				-1,
				-1
			],
			"type":"VEC3"
		},
		{
			"bufferView":32,
			"componentType":5126,
			"count":2506,
			"type":"VEC3"
		},
		{
			"bufferView":33,
			"componentType":5126,
			"count":2506,
			"type":"VEC2"
		},
		{
			"bufferView":34,
			"componentType":5123,
			"count":3156,
			"type":"SCALAR"
		},
		{
			"bufferView":35,
			"componentType":5126,
			"count":27951,
			"max":[
				15.562509536743164,
				-45.87770080566406,
				30.86556053161621
			],
			"min":[
				-31.794599533081055,
				-90.91053771972656,
				-38.81148147583008
			],
			"type":"VEC3"
		},
		{
			"bufferView":36,
			"componentType":5126,
			"count":27951,
			"type":"VEC3"
		},
		{
			"bufferView":37,
			"componentType":5126,
			"count":27951,
			"type":"VEC2"
		},
		{
			"bufferView":38,
			"componentType":5126,
			"count":27951,
			"type":"VEC3"
		},
		{
			"bufferView":39,
			"componentType":5123,
			"count":46392,
			"type":"SCALAR"
		},
		{
			"bufferView":40,
			"componentType":5126,
			"count":24502,
			"max":[
				1.537500023841858,
				2.1492300033569336,
				2.920490026473999
			],
			"min":[
				-1.361009955406189,
				-0.2945599853992462,
				-3.1672699451446533
			],
			"type":"VEC3"
		},
		{
			"bufferView":41,
			"componentType":5126,
			"count":24502,
			"type":"VEC3"
		},
		{
			"bufferView":42,
			"componentType":5126,
			"count":24502,
			"type":"VEC2"
		},
		{
			"bufferView":43,
			"componentType":5126,
			"count":24502,
			"type":"VEC3"
		},
		{
			"bufferView":44,
			"componentType":5123,
			"count":30009,
			"type":"SCALAR"
		},
		{
			"bufferView":45,
			"componentType":5126,
			"count":3746,
			"max":[
				0.9820799827575684,
				4.4279398918151855,
				0.35774001479148865
			],
			"min":[
				-1.0179200172424316,
				-21.685800552368164,
				-0.5081300139427185
			],
			"type":"VEC3"
		},
		{
			"bufferView":46,
			"componentType":5126,
			"count":3746,
			"type":"VEC3"
		},
		{
			"bufferView":47,
			"componentType":5126,
			"count":3746,
			"type":"VEC2"
		},
		{
			"bufferView":48,
			"componentType":5126,
			"count":3746,
			"type":"VEC3"
		},
		{
			"bufferView":49,
			"componentType":5123,
			"count":5706,
			"type":"SCALAR"
		},
		{
			"bufferView":50,
			"componentType":5126,
			"count":6796,
			"max":[
				0.9720100164413452,
				0.9719399809837341,
				0.06089000031352043
			],
			"min":[
				-0.9634799957275391,
				-0.980180025100708,
				-0.09766999632120132
			],
			"type":"VEC3"
		},
		{
			"bufferView":51,
			"componentType":5126,
			"count":6796,
			"type":"VEC3"
		},
		{
			"bufferView":52,
			"componentType":5126,
			"count":6796,
			"type":"VEC2"
		},
		{
			"bufferView":53,
			"componentType":5126,
			"count":6796,
			"type":"VEC3"
		},
		{
			"bufferView":54,
			"componentType":5123,
			"count":11025,
			"type":"SCALAR"
		},
		{
			"bufferView":55,
			"componentType":5126,
			"count":4239,
			"max":[
				1.2068899869918823,
				2.54052996635437,
				3.7671101093292236
			],
			"min":[
				-0.9948400259017944,
				-2.5658600330352783,
				-0.9011800289154053
			],
			"type":"VEC3"
		},
		{
			"bufferView":56,
			"componentType":5126,
			"count":4239,
			"type":"VEC3"
		},
		{
			"bufferView":57,
			"componentType":5126,
			"count":4239,
			"type":"VEC2"
		},
		{
			"bufferView":58,
			"componentType":5123,
			"count":5028,
			"type":"SCALAR"
		},
		{
			"bufferView":59,
			"componentType":5126,
			"count":51726,
			"max":[
				74.98219299316406,
				36.66204071044922,
				8.504730224609375
			],
			"min":[
				-36.881080627441406,
				-95.31487274169922,
				-5.83774995803833
			],
			"type":"VEC3"
		},
		{
			"bufferView":60,
			"componentType":5126,
			"count":51726,
			"type":"VEC3"
		},
		{
			"bufferView":61,
			"componentType":5126,
			"count":51726,
			"type":"VEC2"
		},
		{
			"bufferView":62,
			"componentType":5126,
			"count":51726,
			"type":"VEC3"
		},
		{
			"bufferView":63,
			"componentType":5123,
			"count":61158,
			"type":"SCALAR"
		},
		{
			"bufferView":64,
			"componentType":5126,
			"count":2965,
			"max":[
				0.825410008430481,
				1,
				0
			],
			"min":[
				-0.8243700265884399,
				-7.151360034942627,
				-0.30028000473976135
			],
			"type":"VEC3"
		},
		{
			"bufferView":65,
			"componentType":5126,
			"count":2965,
			"type":"VEC3"
		},
		{
			"bufferView":66,
			"componentType":5126,
			"count":2965,
			"type":"VEC2"
		},
		{
			"bufferView":67,
			"componentType":5123,
			"count":4515,
			"type":"SCALAR"
		}
	],
	"bufferViews":[
		{
			"buffer":0,
			"byteLength":10704,
			"byteOffset":0,
			"target":34962
		},
		{
			"buffer":0,
			"byteLength":10704,
			"byteOffset":10704,
			"target":34962
		},
		{
			"buffer":0,
			"byteLength":7136,
			"byteOffset":21408,
			"target":34962
		},
		{
			"buffer":0,
			"byteLength":3462,
			"byteOffset":28544,
			"target":34963
		},
		{
			"buffer":0,
			"byteLength":85464,
			"byteOffset":32008,
			"target":34962
		},
		{
			"buffer":0,
			"byteLength":85464,
			"byteOffset":117472,
			"target":34962
		},
		{
			"buffer":0,
			"byteLength":56976,
			"byteOffset":202936,
			"target":34962
		},
		{
			"buffer":0,
			"byteLength":27576,
			"byteOffset":259912,
			"target":34963
		},
		{
			"buffer":0,
			"byteLength":24432,
			"byteOffset":287488,
			"target":34962
		},
		{
			"buffer":0,
			"byteLength":24432,
			"byteOffset":311920,
			"target":34962
		},
		{
			"buffer":0,
			"byteLength":16288,
			"byteOffset":336352,
			"target":34962
		},
		{
			"buffer":0,
			"byteLength":24432,
			"byteOffset":352640,
			"target":34962
		},
		{
			"buffer":0,
			"byteLength":8742,
			"byteOffset":377072,
			"target":34963
		},
		{
			"buffer":0,
			"byteLength":8304,
			"byteOffset":385816,
			"target":34962
		},
		{
			"buffer":0,
			"byteLength":8304,
			"byteOffset":394120,
			"target":34962
		},
		{
			"buffer":0,
			"byteLength":5536,
			"byteOffset":402424,
			"target":34962
		},
		{
			"buffer":0,
			"byteLength":2184,
			"byteOffset":407960,
			"target":34963
		},
		{
			"buffer":0,
			"byteLength":47712,
			"byteOffset":410144,
			"target":34962
		},
		{
			"buffer":0,
			"byteLength":47712,
			"byteOffset":457856,
			"target":34962
		},
		{
			"buffer":0,
			"byteLength":31808,
			"byteOffset":505568,
			"target":34962
		},
		{
			"buffer":0,
			"byteLength":47712,
			"byteOffset":537376,
			"target":34962
		},
		{
			"buffer":0,
			"byteLength":10056,
			"byteOffset":585088,
			"target":34963
		},
		{
			"buffer":0,
			"byteLength":21036,
			"byteOffset":595144,
			"target":34962
		},
		{
			"buffer":0,
			"byteLength":21036,
			"byteOffset":616180,
			"target":34962
		},
		{
			"buffer":0,
			"byteLength":14024,
			"byteOffset":637216,
			"target":34962
		},
		{
			"buffer":0,
			"byteLength":21036,
			"byteOffset":651240,
			"target":34962
		},
		{
			"buffer":0,
			"byteLength":5154,
			"byteOffset":672276,
			"target":34963
		},
		{
			"buffer":0,
			"byteLength":21036,
			"byteOffset":677432,
			"target":34962
		},
		{
			"buffer":0,
			"byteLength":21036,
			"byteOffset":698468,
			"target":34962
		},
		{
			"buffer":0,
			"byteLength":14024,
			"byteOffset":719504,
			"target":34962
		},
		{
			"buffer":0,
			"byteLength":21036,
			"byteOffset":733528,
			"target":34962
		},
		{
			"buffer":0,
			"byteLength":30072,
			"byteOffset":754564,
			"target":34962
		},
		{
			"buffer":0,
			"byteLength":30072,
			"byteOffset":784636,
			"target":34962
		},
		{
			"buffer":0,
			"byteLength":20048,
			"byteOffset":814708,
			"target":34962
		},
		{
			"buffer":0,
			"byteLength":6312,
			"byteOffset":834756,
			"target":34963
		},
		{
			"buffer":0,
			"byteLength":335412,
			"byteOffset":841068,
			"target":34962
		},
		{
			"buffer":0,
			"byteLength":335412,
			"byteOffset":1176480,
			"target":34962
		},
		{
			"buffer":0,
			"byteLength":223608,
			"byteOffset":1511892,
			"target":34962
		},
		{
			"buffer":0,
			"byteLength":335412,
			"byteOffset":1735500,
			"target":34962
		},
		{
			"buffer":0,
			"byteLength":92784,
			"byteOffset":2070912,
			"target":34963
		},
		{
			"buffer":0,
			"byteLength":294024,
			"byteOffset":2163696,
			"target":34962
		},
		{
			"buffer":0,
			"byteLength":294024,
			"byteOffset":2457720,
			"target":34962
		},
		{
			"buffer":0,
			"byteLength":196016,
			"byteOffset":2751744,
			"target":34962
		},
		{
			"buffer":0,
			"byteLength":294024,
			"byteOffset":2947760,
			"target":34962
		},
		{
			"buffer":0,
			"byteLength":60018,
			"byteOffset":3241784,
			"target":34963
		},
		{
			"buffer":0,
			"byteLength":44952,
			"byteOffset":3301804,
			"target":34962
		},
		{
			"buffer":0,
			"byteLength":44952,
			"byteOffset":3346756,
			"target":34962
		},
		{
			"buffer":0,
			"byteLength":29968,
			"byteOffset":3391708,
			"target":34962
		},
		{
			"buffer":0,
			"byteLength":44952,
			"byteOffset":3421676,
			"target":34962
		},
		{
			"buffer":0,
			"byteLength":11412,
			"byteOffset":3466628,
			"target":34963
		},
		{
			"buffer":0,
			"byteLength":81552,
			"byteOffset":3478040,
			"target":34962
		},
		{
			"buffer":0,
			"byteLength":81552,
			"byteOffset":3559592,
			"target":34962
		},
		{
			"buffer":0,
			"byteLength":54368,
			"byteOffset":3641144,
			"target":34962
		},
		{
			"buffer":0,
			"byteLength":81552,
			"byteOffset":3695512,
			"target":34962
		},
		{
			"buffer":0,
			"byteLength":22050,
			"byteOffset":3777064,
			"target":34963
		},
		{
			"buffer":0,
			"byteLength":50868,
			"byteOffset":3799116,
			"target":34962
		},
		{
			"buffer":0,
			"byteLength":50868,
			"byteOffset":3849984,
			"target":34962
		},
		{
			"buffer":0,
			"byteLength":33912,
			"byteOffset":3900852,
			"target":34962
		},
		{
			"buffer":0,
			"byteLength":10056,
			"byteOffset":3934764,
			"target":34963
		},
		{
			"buffer":0,
			"byteLength":620712,
			"byteOffset":3944820,
			"target":34962
		},
		{
			"buffer":0,
			"byteLength":620712,
			"byteOffset":4565532,
			"target":34962
		},
		{
			"buffer":0,
			"byteLength":413808,
			"byteOffset":5186244,
			"target":34962
		},
		{
			"buffer":0,
			"byteLength":620712,
			"byteOffset":5600052,
			"target":34962
		},
		{
			"buffer":0,
			"byteLength":122316,
			"byteOffset":6220764,
			"target":34963
		},
		{
			"buffer":0,
			"byteLength":35580,
			"byteOffset":6343080,
			"target":34962
		},
		{
			"buffer":0,
			"byteLength":35580,
			"byteOffset":6378660,
			"target":34962
		},
		{
			"buffer":0,
			"byteLength":23720,
			"byteOffset":6414240,
			"target":34962
		},
		{
			"buffer":0,
			"byteLength":9030,
			"byteOffset":6437960,
			"target":34963
		}
	],
	"samplers":[
		{
			"magFilter":9729,
			"minFilter":9987
		}
	],
	"buffers":[
		{
			"byteLength":6446992,
			"uri":"malli.bin"
		}
	]
}
